<?xml version="1.0" encoding="UTF-8"?>
<svg width="31px" height="31px" viewBox="0 0 31 31" version="1.1" xmlns="http://www.w3.org/2000/svg" xmlns:xlink="http://www.w3.org/1999/xlink">
    <!-- Generator: Sketch 44.1 (41455) - http://www.bohemiancoding.com/sketch -->
    <title>叉号</title>
    <desc>Created with Sketch.</desc>
    <defs></defs>
    <g id="个人主页设计" stroke="none" stroke-width="1" fill="none" fill-rule="evenodd">
        <g id="卡片" transform="translate(-562.000000, -87.000000)" fill-rule="nonzero" fill="#929292">
            <g id="叉号" transform="translate(562.000000, 87.000000)">
                <path d="M29.0014937,30.9946055 C28.4910579,30.9946055 27.9804664,30.7992728 27.5917095,30.4103601 L0.601870135,3.42250711 C-0.177902724,2.64273425 -0.177902724,1.38251693 0.601870135,0.602744069 C1.38160404,-0.17698984 2.64186032,-0.17698984 3.42159423,0.602744069 L30.4094861,27.5904802 C31.18922,28.3702141 31.18922,29.6306262 30.4094861,30.4103601 C30.0205734,30.8012592 29.5101377,30.9946055 29.0014937,30.9946055 L29.0014937,30.9946055 Z" id="Shape"></path>
                <path d="M2.01165428,30.9946055 C1.5011796,30.9946055 0.990743872,30.7992728 0.601870135,30.4103601 C-0.177902724,29.6306262 -0.177902724,28.3702141 0.601870135,27.5904802 L27.5917095,0.602744069 C28.3713266,-0.17698984 29.6316997,-0.17698984 30.4114726,0.602744069 C31.1912065,1.38251693 31.1912065,2.64273425 30.4114726,3.42250711 L3.42159423,30.4103601 C3.03272049,30.8012592 2.52224581,30.9946055 2.01165428,30.9946055 L2.01165428,30.9946055 Z" id="Shape"></path>
            </g>
        </g>
    </g>
</svg>