<?xml version="1.0" encoding="UTF-8"?>
<svg width="83px" height="65px" viewBox="0 0 83 65" version="1.1" xmlns="http://www.w3.org/2000/svg" xmlns:xlink="http://www.w3.org/1999/xlink">
    <!-- Generator: Sketch 44.1 (41455) - http://www.bohemiancoding.com/sketch -->
    <title>Group 7 Copy</title>
    <desc>Created with Sketch.</desc>
    <defs>
        <path d="M1.5,16.4357977 C1.5,30.4642601 14.5956711,41.8365759 30.75,41.8365759 C46.9043289,41.8365759 60,30.4642601 60,16.4357977 L60,0.936284047 L0.936523438,0.936284047 L1.5,16.4357977 Z" id="path-1"></path>
    </defs>
    <g id="首页" stroke="none" stroke-width="1" fill="none" fill-rule="evenodd">
        <g id="Group-7-Copy" transform="translate(5.000000, 5.000000)">
            <g id="Group-6" transform="translate(0.000000, 10.957198)">
                <mask id="mask-2" fill="white">
                    <use xlink:href="#path-1"></use>
                </mask>
                <g id="Combined-Shape" stroke-linecap="round" stroke-linejoin="round">
                    <use fill="#FDCD9F" fill-rule="evenodd" xlink:href="#path-1"></use>
                    <path stroke="#3B3B3B" stroke-width="5" d="M-0.999956887,16.4824116 L-1.65601424,-1.56371595 L62.5,-1.56371595 L62.5,16.4357977 C62.5,31.9295295 48.2127958,44.3365759 30.75,44.3365759 C13.3047204,44.3365759 -0.971335032,31.954407 -0.999956887,16.4824116 Z"></path>
                </g>
                <path d="M53.0043945,-1.06031128 C53.3341471,13.5499351 52.9542643,22.1151102 51.8647461,24.635214 C50.2304688,28.4153696 47.2993164,32.3657588 40.3369141,35.8993191 C35.6953125,38.2550259 29.1103516,39.8385214 20.5820312,40.6498054 L35.6179199,44.354572 C41.7246908,43.3827821 46.1593424,41.964332 48.921875,40.0992218 C53.0656738,37.3015564 60.6801758,23.8929961 61.0375977,14.5992218 C61.2758789,8.40337224 61.2758789,3.18352789 61.0375977,-1.06031128 L53.0043945,-1.06031128 Z" id="Path-12" fill="#F4B679" mask="url(#mask-2)"></path>
            </g>
            <path d="M61.3226633,16.7417757 L61.2200939,24.7895153 C65.1979615,19.7515643 68.1026083,17.9496549 69.9340344,19.383787 C72.6811736,21.5349851 71.6306866,24.7895153 66.9997803,29.4670046 C63.9125095,32.5853308 61.0886339,34.6148232 58.5281536,35.5554819 L56,42.8326848 C62.5317391,40.2788603 67.3872319,37.5412135 70.5664782,34.6197447 C75.3353478,30.2375413 77.8132302,26.0847832 77.9916118,21.4132794 C78.1699934,16.7417757 75.4971075,12.20754 70.5664782,11.9645276 C67.2793921,11.8025194 64.1981204,13.3949354 61.3226633,16.7417757 Z" id="Path-13" fill="#3B3B3B"></path>
            <path d="M16.5,0.984327868 L16.5,2.47849129" id="Path-14" stroke="#3B3B3B" stroke-width="5" stroke-linecap="round" stroke-linejoin="round"></path>
            <path d="M30.5,0.984327868 L30.5,2.47849129" id="Path-14-Copy" stroke="#3B3B3B" stroke-width="5" stroke-linecap="round" stroke-linejoin="round"></path>
            <path d="M44.5,0.984327868 L44.5,2.47849129" id="Path-14-Copy-2" stroke="#3B3B3B" stroke-width="5" stroke-linecap="round" stroke-linejoin="round"></path>
        </g>
    </g>
</svg>