<?xml version="1.0" encoding="UTF-8"?>
<svg width="54px" height="44px" viewBox="0 0 54 44" version="1.1" xmlns="http://www.w3.org/2000/svg" xmlns:xlink="http://www.w3.org/1999/xlink">
    <!-- Generator: Sketch 44.1 (41455) - http://www.bohemiancoding.com/sketch -->
    <title>键盘 copy 2</title>
    <desc>Created with Sketch.</desc>
    <defs></defs>
    <g id="谈话页面" stroke="none" stroke-width="1" fill="none" fill-rule="evenodd">
        <g id="键盘-copy-2" transform="translate(1.000000, 1.000000)" fill-rule="nonzero" fill="#595959">
            <path d="M44.2199089,0.0238314146 L7.78127375,0.0238314146 C3.51716965,0.0238314146 0.0280664665,3.45686634 0.0280664665,7.65276878 L0.0280664665,34.3541807 C0.0280664665,38.5498209 3.51716965,41.9828558 7.78127375,41.9828558 L44.2199089,41.9828558 C48.484546,41.9828558 51.9736492,38.5498209 51.9736492,34.3541807 L51.9736492,7.65276878 C51.9728496,3.45686634 48.4842795,0.0238314146 44.2199089,0.0238314146 Z M48.852858,34.8102228 C48.852858,35.7781651 46.7157423,38.7559446 44.3102546,38.7559446 L7.69012853,38.7559446 C5.28490731,38.7559446 3.14805814,36.6524862 3.14805814,34.285735 L3.14805814,7.72016546 C3.14805814,5.353152 5.28490731,3.25048039 7.69012853,3.25048039 L44.3102546,3.25048039 C46.7154758,3.25048039 48.852858,5.353152 48.852858,7.72016546 L48.852858,34.8102228 Z" id="Shape"></path>
            <path d="M10.1164038,14.4155145 L13.9932739,14.4155145 C15.1560418,14.4155145 15.9310427,13.652647 15.9310427,12.5082146 C15.9310427,11.3640445 15.1560418,10.601177 13.9932739,10.601177 L10.1164038,10.601177 C8.95416889,10.601177 8.17863495,11.3640445 8.17863495,12.5082146 C8.17810194,13.652647 8.95336937,14.4155145 10.1164038,14.4155145 Z" id="Shape"></path>
            <path d="M19.0326454,14.4155145 L22.9089826,14.4155145 C24.072017,14.4155145 24.8472844,13.652647 24.8472844,12.5082146 C24.8472844,11.3640445 24.072017,10.601177 22.9089826,10.601177 L19.0326454,10.601177 C17.8701441,10.601177 17.0948766,11.3640445 17.0948766,12.5082146 C17.0940771,13.652647 18.257378,14.4155145 19.0326454,14.4155145 Z" id="Shape"></path>
            <path d="M28.3361211,14.4155145 L32.2124582,14.4155145 C33.3754926,14.4155145 34.15076,13.652647 34.15076,12.5082146 C34.15076,11.3640445 32.9879922,10.601177 32.2124582,10.601177 L28.3361211,10.601177 C27.1733532,10.601177 26.3983523,11.3640445 26.3983523,12.5082146 C26.3975528,13.652647 27.1733532,14.4155145 28.3361211,14.4155145 Z" id="Shape"></path>
            <path d="M41.1284334,10.601177 L37.2518297,10.601177 C36.0887954,10.601177 35.3137944,11.3640445 35.3137944,12.5082146 C35.3137944,13.652647 36.0887954,14.4155145 37.2518297,14.4155145 L41.1284334,14.4155145 C42.2914678,14.4155145 43.0664687,13.652647 43.0664687,12.5082146 C43.0664687,11.3640445 42.2914678,10.601177 41.1284334,10.601177 Z" id="Shape"></path>
            <path d="M36.8640628,27.7663516 L14.3805079,27.7663516 C13.218273,27.7663516 12.4427391,28.5292191 12.4427391,29.6733893 C12.4427391,30.8170349 13.2180065,31.5801647 14.3805079,31.5801647 L36.8640628,31.5801647 C38.0268307,31.5801647 38.8020981,30.8172972 38.8020981,29.6733893 C38.8020981,28.5292191 38.0268307,27.7663516 36.8640628,27.7663516 Z" id="Shape"></path>
            <path d="M15.9310427,20.9000195 C15.9310427,19.7558494 15.1560418,18.9929819 13.9932739,18.9929819 L10.1164038,18.9929819 C8.95416889,18.9929819 8.17863495,19.7558494 8.17863495,20.9000195 C8.17863495,22.0444519 8.95390238,22.8070572 10.1164038,22.8070572 L13.9932739,22.8070572 C15.1560418,22.8075817 15.9310427,21.6634115 15.9310427,20.9000195 Z" id="Shape"></path>
            <path d="M19.0326454,22.8075817 L22.9089826,22.8075817 C24.072017,22.8075817 24.8472844,22.0449764 24.8472844,20.9008062 C24.8472844,19.7563739 24.072017,18.9935063 22.9089826,18.9935063 L19.0326454,18.9935063 C17.8701441,18.9935063 17.0948766,19.7563739 17.0948766,20.9008062 C17.0940771,21.6634115 18.257378,22.8075817 19.0326454,22.8075817 Z" id="Shape"></path>
            <path d="M28.3361211,22.8075817 L32.2124582,22.8075817 C33.3754926,22.8075817 34.15076,22.0449764 34.15076,20.9008062 C34.15076,19.7563739 33.3754926,18.9935063 32.2124582,18.9935063 L28.3361211,18.9935063 C27.1733532,18.9935063 26.3983523,19.7563739 26.3983523,20.9008062 C26.3975528,21.6634115 27.1733532,22.8075817 28.3361211,22.8075817 Z" id="Shape"></path>
            <path d="M41.1284334,18.9929819 L37.2518297,18.9929819 C36.0887954,18.9929819 35.3137944,19.7558494 35.3137944,20.9000195 C35.3137944,22.0444519 36.0887954,22.8070572 37.2518297,22.8070572 L41.1284334,22.8070572 C42.2914678,22.8070572 43.0664687,22.0444519 43.0664687,20.9000195 C43.0664687,19.7558494 42.2914678,18.9929819 41.1284334,18.9929819 Z" id="Shape"></path>
        </g>
    </g>
</svg>