<?xml version="1.0" standalone="no"?><!DOCTYPE svg PUBLIC "-//W3C//DTD SVG 1.1//EN" "http://www.w3.org/Graphics/SVG/1.1/DTD/svg11.dtd"><svg t="1500346727777" class="icon" style="" viewBox="0 0 1171 1024" version="1.1" xmlns="http://www.w3.org/2000/svg" p-id="1028" xmlns:xlink="http://www.w3.org/1999/xlink" width="228.7109375" height="200"><defs><style type="text/css"></style></defs><path d="M746.56119 861.985048c-14.486554 72.582973-77.516858 127.224693-153.090856 127.224693-75.573998 0-138.60267-54.64172-153.089224-127.224693L156.029637 861.985048l124.99122-254.52612L281.020856 352.931175c0-175.691709 139.885937-318.139283 312.449478-318.139283 172.584765 0 312.470702 142.449207 312.470702 318.139283l0 254.52612 124.971628 254.52612L746.56119 861.983415zM593.470334 925.59821c40.778841 0 75.108691-26.641675 88.00014-63.613163L505.470194 861.985048C518.382867 898.954903 552.712718 925.59821 593.470334 925.59821zM843.415222 607.457295 843.415222 352.931175c0-140.54553-111.88426-254.52612-249.944888-254.52612-138.058996 0-249.962848 113.98059-249.962848 254.52612l0 254.52612-93.748721 190.875406 687.405178 0L843.415222 607.457295z" p-id="1029" fill="#2c2c2c"></path></svg>