<?xml version="1.0" encoding="UTF-8"?>
<svg width="46px" height="36px" viewBox="0 0 46 36" version="1.1" xmlns="http://www.w3.org/2000/svg" xmlns:xlink="http://www.w3.org/1999/xlink">
    <!-- Generator: Sketch 44.1 (41455) - http://www.bohemiancoding.com/sketch -->
    <title>名片 copy</title>
    <desc>Created with Sketch.</desc>
    <defs></defs>
    <g id="谈话页面" stroke="none" stroke-width="1" fill="none" fill-rule="evenodd">
        <g id="名片-copy" transform="translate(1.000000, 1.000000)" fill-rule="nonzero" fill="#595959">
            <path d="M23.3931034,19.8791086 L6.91494253,19.8791086 C6.17931034,19.8791086 5.5908046,20.4852368 5.5908046,21.2428969 C5.5908046,22.0005571 6.17931034,22.6066852 6.91494253,22.6066852 L23.5402299,22.6066852 C24.2758621,22.6066852 24.8643678,22.0005571 24.8643678,21.2428969 C24.8643678,20.4852368 24.2758621,19.8791086 23.3931034,19.8791086 Z M23.3931034,25.4857939 L6.91494253,25.4857939 C6.17931034,25.4857939 5.5908046,26.091922 5.5908046,26.8495822 C5.5908046,27.6072423 6.17931034,28.2133705 6.91494253,28.2133705 L23.5402299,28.2133705 C24.2758621,28.2133705 24.8643678,27.6072423 24.8643678,26.8495822 C24.8643678,26.091922 24.2758621,25.4857939 23.3931034,25.4857939 Z M38.6942529,0.0284122563 L5.44367816,0.0284122563 C2.50114943,0.0284122563 0,2.45292479 0,5.63509749 L0,28.3649025 C0,31.5470752 2.50114943,33.9715877 5.44367816,33.9715877 L38.5471264,33.9715877 C41.6367816,33.9715877 43.9908046,31.3955432 43.9908046,28.3649025 L43.9908046,5.63509749 C44.137931,2.45292479 41.6367816,0.0284122563 38.6942529,0.0284122563 Z M41.3425287,28.3649025 C41.3425287,29.8802228 40.1655172,31.2440111 38.5471264,31.2440111 L5.44367816,31.2440111 C3.97241379,31.2440111 2.64827586,30.0317549 2.64827586,28.3649025 L2.64827586,5.63509749 C2.64827586,4.11977716 3.82528736,2.75598886 5.44367816,2.75598886 L38.5471264,2.75598886 C40.0183908,2.75598886 41.3425287,3.96824513 41.3425287,5.63509749 L41.3425287,28.3649025 L41.3425287,28.3649025 Z M35.8988506,5.63509749 L30.308046,5.63509749 C28.8367816,5.63509749 27.5126437,6.84735376 27.5126437,8.51420613 L27.5126437,14.1208914 C27.5126437,15.6362117 28.6896552,17 30.308046,17 L35.7517241,17 C37.2229885,17 38.5471264,15.7877437 38.5471264,14.1208914 L38.5471264,8.36267409 C38.6942529,6.84735376 37.3701149,5.63509749 35.8988506,5.63509749 Z M35.8988506,12.7571031 C35.8988506,13.5147632 35.3103448,14.1208914 34.5747126,14.1208914 L31.7793103,14.1208914 C31.0436782,14.1208914 30.4551724,13.5147632 30.4551724,12.7571031 L30.4551724,9.87799443 C30.4551724,9.12033426 31.0436782,8.51420613 31.7793103,8.51420613 L34.5747126,8.51420613 C35.3103448,8.51420613 35.8988506,9.12033426 35.8988506,9.87799443 L35.8988506,12.7571031 Z" id="Shape"></path>
        </g>
    </g>
</svg>