<?xml version="1.0" encoding="UTF-8"?>
<svg width="36px" height="48px" viewBox="0 0 36 48" version="1.1" xmlns="http://www.w3.org/2000/svg" xmlns:xlink="http://www.w3.org/1999/xlink">
    <!-- Generator: Sketch 44.1 (41455) - http://www.bohemiancoding.com/sketch -->
    <title>语音 copy 2</title>
    <desc>Created with Sketch.</desc>
    <defs></defs>
    <g id="谈话页面" stroke="none" stroke-width="1" fill="none" fill-rule="evenodd">
        <g id="语音-copy-2" transform="translate(1.000000, 1.000000)" fill-rule="nonzero" fill="#595959">
            <path d="M23.3963788,45.9711726 L19.7489,42.3195359 C25.2915182,37.5719439 28.8171636,30.5313655 28.8171636,22.6552063 C28.8171636,15.1520493 25.6085424,8.41573094 20.5140545,3.68923094 L24.1705485,0.0288789238 C30.1984394,5.69270628 33.9846485,13.7193969 33.9847,22.6477803 C33.9847,31.9531883 29.8748212,40.2797556 23.3964303,45.9711211 L23.3963788,45.9711726 Z" id="Shape"></path>
            <path d="M13.5529667,36.1170135 L9.79545152,32.3561009 C13.2100818,30.4663879 15.5234212,26.8295516 15.5234727,22.6477803 C15.5234727,18.851491 13.6149394,15.5042691 10.7083,13.5050224 L14.3980212,9.81197534 C18.2219909,12.7879484 20.6926061,17.4244081 20.6926061,22.6478318 C20.6926061,28.2512197 17.8614364,33.1910628 13.5529667,36.1171166 L13.5529667,36.1170135 Z M3.70739091,27.083583 C1.66852424,27.083583 0.0153,25.42913 0.0153,23.3873386 C0.0153,21.3452892 1.66826667,19.6910942 3.70739091,19.6910942 C5.74780303,19.6910942 7.39999697,21.3452377 7.39999697,23.387287 C7.39999697,25.4290269 5.74780303,27.0835314 3.70739091,27.0834798 L3.70739091,27.083583 Z" id="Shape"></path>
        </g>
    </g>
</svg>